<svg xmlns="http://www.w3.org/2000/svg" width="35" height="35" fill="none" viewBox="0 0 35 35">
    <path stroke="#6C63FF" stroke-linecap="round" stroke-linejoin="round" stroke-width="2" d="M21 24.5h-7A10.5 10.5 0 0 1 3.5 14 10.5 10.5 0 0 1 14 3.5h7A10.5 10.5 0 0 1 31.5 14s1.512 15.358-11.368 17.5c.434-.315 5.684-7 .868-7z"/>
    <path stroke="#6C63FF" stroke-linecap="round" stroke-linejoin="round" d="M16.1 16.1a3.535 3.535 0 0 0 2.8 0M11.137 16.1a1.4 1.4 0 1 0 0-2.8 1.4 1.4 0 0 0 0 2.8zM23.807 16.1a1.4 1.4 0 1 0 0-2.8 1.4 1.4 0 0 0 0 2.8z"/>
</svg>
