<svg xmlns="http://www.w3.org/2000/svg" width="74" height="72" fill="none" viewBox="0 0 74 72">
    <path fill="#fff" stroke="#6C63FF" stroke-linecap="round" stroke-linejoin="round" stroke-width="5" d="M44.4 50.4H29.6c-5.888 0-11.535-2.276-15.698-6.326C9.74 40.023 7.4 34.529 7.4 28.8c0-5.729 2.339-11.223 6.502-15.274C18.065 9.477 23.712 7.2 29.6 7.2h14.8c5.888 0 11.534 2.276 15.698 6.327C64.26 17.576 66.6 23.07 66.6 28.8c0 0 3.197 31.594-24.035 36 .917-.648 12.017-14.4 1.835-14.4z"/>
    <path stroke="#6C63FF" stroke-linecap="round" stroke-linejoin="round" stroke-width="2" d="M23.606 33.12c1.635 0 2.96-1.29 2.96-2.88 0-1.59-1.325-2.88-2.96-2.88s-2.96 1.29-2.96 2.88c0 1.59 1.325 2.88 2.96 2.88zM50.394 33.12c1.635 0 2.96-1.29 2.96-2.88 0-1.59-1.325-2.88-2.96-2.88s-2.96 1.29-2.96 2.88c0 1.59 1.325 2.88 2.96 2.88zM37 33.12c1.635 0 2.96-1.29 2.96-2.88 0-1.59-1.325-2.88-2.96-2.88s-2.96 1.29-2.96 2.88c0 1.59 1.325 2.88 2.96 2.88z"/>
</svg>
