<svg xmlns="http://www.w3.org/2000/svg" width="74" height="74" fill="none" viewBox="0 0 74 74">
    <circle cx="37" cy="37" r="37" fill="#fff"/>
    <path stroke="#6C63FF" stroke-linecap="round" stroke-linejoin="round" stroke-width="4" d="M42.737 50.14H31.288c-4.554 0-8.922-1.761-12.143-4.895-3.22-3.133-5.03-7.383-5.03-11.815 0-4.431 1.81-8.681 5.03-11.815 3.22-3.133 7.589-4.894 12.143-4.894h11.45c4.554 0 8.922 1.76 12.142 4.894C58.102 24.75 59.91 29 59.91 33.43c0 0 2.473 24.44-18.592 27.849.71-.502 9.296-11.14 1.42-11.14z"/>
    <path stroke="#6C63FF" stroke-linecap="round" stroke-linejoin="round" stroke-width="2" d="M26.652 36.772c1.264 0 2.29-.997 2.29-2.228 0-1.23-1.026-2.228-2.29-2.228-1.265 0-2.29.998-2.29 2.228 0 1.23 1.025 2.228 2.29 2.228zM47.374 36.772c1.265 0 2.29-.997 2.29-2.228 0-1.23-1.025-2.228-2.29-2.228-1.264 0-2.29.998-2.29 2.228 0 1.23 1.026 2.228 2.29 2.228zM37.013 36.772c1.265 0 2.29-.997 2.29-2.228 0-1.23-1.025-2.228-2.29-2.228-1.265 0-2.29.998-2.29 2.228 0 1.23 1.025 2.228 2.29 2.228z"/>
</svg>
