<svg xmlns="http://www.w3.org/2000/svg" width="30" height="30" fill="none" viewBox="0 0 30 30">
    <g clip-path="url(#a)">
        <path fill="#C03A2B" d="M14.91 6.076c1.21-2.87 3.977-4.875 7.194-4.875 4.334 0 7.455 3.707 7.847 8.125 0 0 .212 1.097-.254 3.072-.635 2.689-2.127 5.078-4.139 6.902L14.91 28.8 4.441 19.299C2.43 17.476.937 15.086.302 12.397-.164 10.423.048 9.326.048 9.326.44 4.907 3.562 1.2 7.895 1.2c3.218 0 5.804 2.006 7.015 4.876z"/>
        <path fill="#ED7161" d="M3.6 10.847a.6.6 0 0 1-.6-.6c0-3.309 2.692-6 6-6a.6.6 0 1 1 0 1.2 4.806 4.806 0 0 0-4.8 4.8.6.6 0 0 1-.6.6z"/>
    </g>
    <defs>
        <clipPath id="a">
            <path fill="#fff" d="M0 0h30v30H0z"/>
        </clipPath>
    </defs>
</svg>
