<svg xmlns="http://www.w3.org/2000/svg" width="50" height="50" fill="none" viewBox="0 0 50 50">
    <g clip-path="url(#a)">
        <path stroke="#8A8A8F" stroke-width="2" d="M23.929 10.515l.921 2.183.921-2.183C27.645 6.075 31.91 3 36.84 3c6.563 0 11.461 5.629 12.083 12.632l.004.05.009.044v.005l.007.04c.006.04.015.108.023.203.018.189.036.486.032.884-.008.797-.105 2.003-.476 3.574-1.008 4.268-3.38 8.076-6.594 10.99l-.003.002-17.07 15.23-16.78-15.23-.002-.001c-3.215-2.913-5.588-6.722-6.596-10.992-.37-1.571-.468-2.777-.476-3.574a8.604 8.604 0 0 1 .032-.884 4.204 4.204 0 0 1 .03-.243v-.003l.009-.046.004-.05C1.698 8.629 6.596 3 13.16 3c4.905 0 8.885 3.048 10.77 7.515z"/>
    </g>
    <defs>
        <clipPath id="a">
            <path fill="#fff" d="M0 0h50v50H0z"/>
        </clipPath>
    </defs>
</svg>
