<svg xmlns="http://www.w3.org/2000/svg" width="48" height="48" fill="none" viewBox="0 0 48 48">
    <path fill="#6C63FF" d="M24 24a6 6 0 1 0-6-6 6.008 6.008 0 0 0 6 6zm0-9.667a3.679 3.679 0 1 1 0 7.357 3.679 3.679 0 0 1 0-7.357zM24 26c-2.664-.017-5.22.904-7.078 2.549-1.89 1.66-2.922 3.915-2.922 6.366.002.599.564 1.083 1.26 1.085h17.48c.696-.002 1.258-.486 1.26-1.085 0-2.45-1.033-4.707-2.922-6.366C29.221 26.904 26.664 25.983 24 26zm-7.393 7.83c.215-1.417.958-2.737 2.116-3.763 1.394-1.214 3.294-1.898 5.277-1.898s3.883.684 5.277 1.898c1.156 1.027 1.897 2.346 2.116 3.764H16.607z"/>
</svg>
