<svg xmlns="http://www.w3.org/2000/svg" width="50" height="25" fill="none" viewBox="0 0 50 25">
    <path fill="#FDB16D" d="M0 0h50v25H0z"/>
    <path fill="#fff" d="M17.627 19h-1.885L8.584 8.043V19H6.699V4.781h1.885l7.178 11.006V4.781h1.865V19zm7.432.195c-1.433 0-2.598-.468-3.497-1.406-.898-.944-1.347-2.204-1.347-3.78v-.331c0-1.048.198-1.983.596-2.803.403-.827.963-1.471 1.68-1.934a4.226 4.226 0 0 1 2.343-.703c1.374 0 2.441.453 3.203 1.358s1.143 2.2 1.143 3.886v.752H22.02c.026 1.042.33 1.885.909 2.53.586.638 1.328.957 2.226.957.638 0 1.179-.13 1.621-.39.443-.261.83-.606 1.162-1.036l1.104.86c-.885 1.36-2.214 2.04-3.984 2.04zm-.225-9.472c-.73 0-1.341.267-1.836.8-.495.528-.8 1.27-.918 2.227h5.293v-.137c-.052-.918-.3-1.627-.742-2.129-.443-.507-1.042-.761-1.797-.761zm15.8 6.787l2.032-8.076h1.807L41.397 19h-1.465l-2.569-8.008-2.5 8.008h-1.465L30.332 8.434h1.797l2.08 7.91 2.46-7.91h1.456l2.51 8.076z"/>
</svg>
