<svg xmlns="http://www.w3.org/2000/svg" width="24" height="24" fill="none" viewBox="0 0 24 24">
    <path fill="#6C63FF" d="M18.75 8.813h-1.69V4.957C17.06 2.224 14.79 0 11.999 0 9.207 0 6.936 2.224 6.936 4.958v3.854H5.25a2.816 2.816 0 0 0-2.813 2.813v9.563A2.816 2.816 0 0 0 5.25 24h13.5a2.816 2.816 0 0 0 2.813-2.813v-9.562a2.816 2.816 0 0 0-2.813-2.813zM8.81 4.957c0-1.7 1.43-3.083 3.188-3.083 1.758 0 3.188 1.383 3.188 3.083v3.854H8.81V4.958zm10.877 16.23c0 .516-.42.937-.937.937H5.25a.939.939 0 0 1-.938-.938v-9.562c0-.517.421-.938.938-.938h13.5c.517 0 .938.421.938.938v9.563z"/>
    <path fill="#6C63FF" d="M12 13.406a1.734 1.734 0 0 0-.94 3.192v2.058a.938.938 0 1 0 1.876 0v-2.055A1.734 1.734 0 0 0 12 13.407z"/>
</svg>
