<svg xmlns="http://www.w3.org/2000/svg" width="32" height="32" fill="none" viewBox="0 0 32 32">
    <g clip-path="url(#a)">
        <path fill="#000" d="M18.734 12.774c0-.641.515-1.16 1.152-1.16.635 0 1.15.519 1.15 1.16 0 .642-.515 1.162-1.15 1.162-.637 0-1.152-.52-1.152-1.162zM15.15 2.883h-.009v1.592h1.461V2.928c.503-.255.851-.773.851-1.38C17.453.693 16.767 0 15.918 0c-.848 0-1.535.693-1.535 1.548 0 .573.31 1.066.768 1.334zm-3.197 11.054c.636 0 1.151-.52 1.151-1.162 0-.641-.515-1.161-1.15-1.161-.637 0-1.153.52-1.153 1.16 0 .643.516 1.163 1.152 1.163zM15.918 32c1.733 0 3.207-1.112 3.766-2.667h-7.532c.56 1.555 2.033 2.667 3.766 2.667zM3.911 27.282c0-.615.358-1.141.872-1.391v-6.584a2.441 2.441 0 0 1 2.27-2.443v-3.186s.309-5.807 5.1-7.613A12.114 12.114 0 0 1 16 5.27c1.127.04 2.426.258 3.847.793 4.791 1.807 5.1 7.614 5.1 7.614v3.185a2.442 2.442 0 0 1 2.27 2.444v6.584c.514.25.872.777.872 1.391 0 .855-.688 1.548-1.535 1.548a1.542 1.542 0 0 1-1.536-1.548c0-.615.358-1.14.872-1.39V21.49a2.41 2.41 0 0 1-.942.259v1.53c.008.123.018.246.018.372 0 .134-.008.267-.018.4v.035h-.002c-.205 2.549-2.182 4.59-4.688 4.869l.002.035h-8.52l.003-.035c-2.507-.278-4.484-2.32-4.688-4.869h-.002v-.035a5.567 5.567 0 0 1-.018-.4c0-.126.01-.249.018-.372v-1.53a2.403 2.403 0 0 1-.943-.26v4.403c.515.25.872.776.872 1.39 0 .856-.687 1.548-1.535 1.548a1.542 1.542 0 0 1-1.536-1.548zm14.652-8.098a.742.742 0 0 0-.74-.745c-.409 0-.739.334-.739.745 0 .412.33.746.74.746a.742.742 0 0 0 .738-.746zm1.819 0a.742.742 0 0 0-.739-.745.742.742 0 0 0-.74.745c0 .412.332.746.74.746a.742.742 0 0 0 .739-.746zm1.82 0a.742.742 0 0 0-.739-.745.742.742 0 0 0-.74.745c0 .412.331.746.74.746a.742.742 0 0 0 .74-.746zM9.778 12.99c0 1.978 1.535 2.107 1.535 2.107.535.17 1.664.086 2.175 0 .47-.08 2.196-.23 2.47-.255l.042.004c.014 0 .03-.003.04-.004.275.024 2 .175 2.471.255.512.086 1.64.17 2.175 0 0 0 1.535-.129 1.535-2.107 0 0 0-2.194-1.535-3.528-1.489-1.293-3.727-1.573-4.605-1.59v-.001h-.163v.001c-.877.017-3.116.297-4.605 1.59-1.535 1.334-1.535 3.528-1.535 3.528z"/>
    </g>
    <defs>
        <clipPath id="a">
            <path fill="#fff" d="M0 0h32v32H0z"/>
        </clipPath>
    </defs>
</svg>
