<?xml version="1.0" encoding="iso-8859-1"?>
<!-- Generator: Adobe Illustrator 19.0.0, SVG Export Plug-In . SVG Version: 6.00 Build 0)  -->
<svg version="1.1" id="Capa_1" xmlns="http://www.w3.org/2000/svg" xmlns:xlink="http://www.w3.org/1999/xlink" x="0px" y="0px"
	 viewBox="0 0 480 480" style="enable-background:new 0 0 480 480;" xml:space="preserve">
<path style="fill:#55D5F2;" d="M8,80h464v392H8V80z"/>
<circle style="fill:#F5FAFC;" cx="240" cy="280" r="128"/>
<path style="fill:#3F4E56;" d="M56,8h32v40H56V8z"/>
<path style="fill:#D3D3D3;" d="M424,32v16h-32V32H88v16H56V32H8v48h464V32H424z"/>
<path style="fill:#3F4E56;" d="M392,8h32v40h-32V8z"/>
<g>
	<path style="fill:#ED4720;" d="M56,120h80v64H56V120z"/>
	<path style="fill:#ED4720;" d="M56,368h80v64H56V368z"/>
	<path style="fill:#ED4720;" d="M112,280c0-11.072,1.552-21.752,4.192-32H56v64h60.192C113.552,301.752,112,291.072,112,280z"/>
	<path style="fill:#ED4720;" d="M424,432h-80v-64h80V432z"/>
	<path style="fill:#ED4720;" d="M424,184h-80v-64h80V184z"/>
	<path style="fill:#ED4720;" d="M368,280c0,11.072-1.552,21.752-4.192,32H424v-64h-60.192C366.448,258.248,368,268.928,368,280
		L368,280z"/>
	<path style="fill:#ED4720;" d="M240,152c13.984,0,27.408,2.32,40,6.464V120h-80v38.464C212.592,154.32,226.016,152,240,152z"/>
	<path style="fill:#ED4720;" d="M240,408c-13.984,0-27.408-2.32-40-6.464V440h80v-38.464C267.408,405.68,253.984,408,240,408z"/>
</g>
<path d="M240,296c5.896,0,11-3.24,13.776-8H312v-16h-58.224c-1.4-2.392-3.376-4.376-5.776-5.776V192h-16v74.224
	c-4.76,2.776-8,7.88-8,13.776C224,288.824,231.176,296,240,296z"/>
<path d="M472,24h-40V8c0-4.424-3.584-8-8-8h-32c-4.416,0-8,3.576-8,8v16H96V8c0-4.424-3.584-8-8-8H56c-4.416,0-8,3.576-8,8v16H8
	c-4.416,0-8,3.576-8,8v48v392c0,4.424,3.584,8,8,8h464c4.416,0,8-3.576,8-8V80V32C480,27.576,476.416,24,472,24z M464,464H16V88h448
	V464z M16,40h32v8c0,4.424,3.584,8,8,8h32c4.416,0,8-3.576,8-8v-8h288v8c0,4.424,3.584,8,8,8h32c4.416,0,8-3.576,8-8v-8h32v32H16V40
	z M64,32V16h16v16v8H64V32z M400,32V16h16v16v8h-16V32z"/>
<path d="M56,440h80c4.416,0,8-3.576,8-8v-55.768c13.496,13.464,29.856,23.976,48,30.856V440c0,4.424,3.584,8,8,8h80
	c4.416,0,8-3.576,8-8v-32.912c18.144-6.88,34.504-17.392,48-30.856V432c0,4.424,3.584,8,8,8h80c4.416,0,8-3.576,8-8v-64
	c0-4.424-3.584-8-8-8h-74.264c8.792-12.024,15.752-25.456,20.24-40H424c4.416,0,8-3.576,8-8v-64c0-4.424-3.584-8-8-8h-54.024
	c-5.52-17.912-14.696-34.2-26.584-48.12c0.216,0.016,0.392,0.12,0.608,0.12h80c4.416,0,8-3.576,8-8v-64c0-4.424-3.584-8-8-8h-80
	c-4.416,0-8,3.576-8,8v63.768c-13.496-13.464-29.856-23.976-48-30.856V120c0-4.424-3.584-8-8-8h-80c-4.416,0-8,3.576-8,8v32.912
	c-18.144,6.88-34.504,17.392-48,30.856V120c0-4.424-3.584-8-8-8H56c-4.416,0-8,3.576-8,8v64c0,4.424,3.584,8,8,8h80
	c0.216,0,0.392-0.104,0.608-0.12c-11.888,13.92-21.064,30.216-26.584,48.12H56c-4.416,0-8,3.576-8,8v64c0,4.424,3.584,8,8,8h54.024
	c4.488,14.544,11.448,27.976,20.24,40H56c-4.416,0-8,3.576-8,8v64C48,436.424,51.584,440,56,440L56,440z M352,128h64v48h-64V128z
	 M128,176H64v-48h64V176z M64,376h64v48H64V376z M208,147.856V128h64v19.856c-10.52-2.56-21.248-3.856-32-3.856
	S218.52,145.296,208,147.856z M202.768,165.984c2.048-0.672,4.12-1.208,6.184-1.768c1.392-0.376,2.776-0.752,4.184-1.08
	c1.944-0.448,3.896-0.832,5.856-1.184c1.72-0.304,3.456-0.568,5.2-0.8c1.752-0.232,3.496-0.472,5.248-0.632
	c0.848-0.072,1.704-0.072,2.56-0.128V176h16v-15.592c0.848,0.056,1.712,0.056,2.56,0.128c1.752,0.16,3.504,0.392,5.248,0.632
	c1.744,0.232,3.48,0.488,5.208,0.8c1.96,0.352,3.912,0.728,5.856,1.176c1.408,0.32,2.792,0.704,4.184,1.08
	c2.064,0.552,4.136,1.096,6.184,1.768c38.696,12.672,68.68,44.512,78.88,84.256c1.032,4.04,1.816,8.064,2.432,12.072
	c0.168,1.128,0.376,2.232,0.512,3.368c0.184,1.464,0.304,2.912,0.432,4.36c0.056,0.648,0.056,1.312,0.096,1.96H344v16h15.592
	c-0.04,0.648-0.048,1.312-0.096,1.96c-0.128,1.448-0.248,2.904-0.432,4.36c-0.136,1.136-0.344,2.24-0.512,3.368
	c-0.624,4.008-1.4,8.032-2.432,12.072c-10.2,39.744-40.184,71.584-78.88,84.256c-2.048,0.672-4.128,1.216-6.2,1.768
	c-1.384,0.368-2.76,0.752-4.16,1.072c-1.944,0.448-3.904,0.832-5.864,1.184c-1.72,0.304-3.456,0.568-5.2,0.792
	c-1.752,0.232-3.504,0.472-5.264,0.632c-0.84,0.072-1.704,0.072-2.552,0.128V384h-16v15.592c-0.848-0.056-1.712-0.056-2.552-0.128
	c-1.76-0.16-3.512-0.4-5.264-0.632c-1.744-0.232-3.48-0.488-5.192-0.792c-1.96-0.352-3.92-0.736-5.864-1.184
	c-1.4-0.32-2.784-0.704-4.16-1.072c-2.072-0.56-4.144-1.104-6.2-1.768c-38.696-12.672-68.68-44.512-78.88-84.256
	c-1.032-4.04-1.816-8.064-2.432-12.072c-0.168-1.128-0.376-2.232-0.512-3.368c-0.184-1.464-0.304-2.912-0.432-4.36
	c-0.056-0.648-0.056-1.312-0.096-1.96H136v-16h-15.592c0.04-0.648,0.048-1.312,0.096-1.96c0.128-1.448,0.248-2.904,0.432-4.36
	c0.136-1.136,0.344-2.24,0.512-3.368c0.624-4.008,1.4-8.032,2.432-12.072C134.088,210.496,164.072,178.656,202.768,165.984
	L202.768,165.984z M272,412.144V432h-64v-19.856C229.048,417.264,250.952,417.264,272,412.144z M416,424h-64v-48h64V424z M376,280
	c0-7.872-0.752-15.912-2.24-24H416v48h-42.24C375.248,295.912,376,287.872,376,280z M104,280c0,7.872,0.752,15.912,2.24,24H64v-48
	h42.24C104.752,264.088,104,272.128,104,280z"/>
<g>
</g>
<g>
</g>
<g>
</g>
<g>
</g>
<g>
</g>
<g>
</g>
<g>
</g>
<g>
</g>
<g>
</g>
<g>
</g>
<g>
</g>
<g>
</g>
<g>
</g>
<g>
</g>
<g>
</g>
</svg>
