<svg xmlns="http://www.w3.org/2000/svg" width="175" height="175" fill="none" viewBox="0 0 175 175">
    <path fill="#382656" d="M77.292 11.666a8.75 8.75 0 0 0-8.75 8.75 8.76 8.76 0 0 0 8.75 8.75 8.75 8.75 0 1 0 0-17.5zm0 11.667a2.917 2.917 0 1 1 0-5.834 2.917 2.917 0 0 1 0 5.834zM123.959 46.666H30.626a2.917 2.917 0 0 0-2.917 2.917v64.167a2.917 2.917 0 0 0 2.917 2.917h93.333a2.917 2.917 0 0 0 2.917-2.917V49.583a2.917 2.917 0 0 0-2.917-2.916zm-32.083 64.167H62.709V95.965a8.474 8.474 0 0 1 8.465-8.465h12.237a8.474 8.474 0 0 1 8.465 8.465v14.868zM68.542 72.917a8.75 8.75 0 1 1 17.5 0 8.76 8.76 0 0 1-8.75 8.75 8.75 8.75 0 0 1-8.75-8.75zm52.5 37.916H97.709V95.965a14.275 14.275 0 0 0-9.546-13.424c5.369-6.004 4.855-15.223-1.15-20.593-6.003-5.369-15.222-4.854-20.592 1.15a14.584 14.584 0 0 0 0 19.443 14.276 14.276 0 0 0-9.545 13.424v14.868H33.542V52.5h87.5v58.333zM71.459 122.5h-43.75v5.833h43.75V122.5zM94.792 122.5h-17.5v5.833h17.5V122.5zM97.709 140h-70v5.833h70V140zM112.292 122.5h-11.667v5.833h11.667V122.5z"/>
    <path fill="#382656" d="M163.938 120.438l-8.75-8.75a2.915 2.915 0 0 0-4.34.241l-6.472 8.09V20.417a2.917 2.917 0 0 0-2.917-2.917H98.055l2.525-14.068A2.916 2.916 0 0 0 97.709 0H56.876a2.917 2.917 0 0 0-2.871 3.432L56.53 17.5H13.126a2.917 2.917 0 0 0-2.917 2.917v151.666A2.917 2.917 0 0 0 13.126 175h128.333a2.917 2.917 0 0 0 2.917-2.917v-24.386l19.725-23.313a2.917 2.917 0 0 0-.163-3.946zM94.223 5.833L88.986 35h-23.39L60.362 5.833h33.86zm44.319 163.334h-122.5V23.333h41.534l2.71 15.1a2.916 2.916 0 0 0 2.871 2.4h28.27a2.916 2.916 0 0 0 2.87-2.4l2.71-15.1h41.535v103.978l-8.992 11.239-6.446-6.445a2.915 2.915 0 0 0-4.123-.001l-.001.001-8.75 8.75a2.915 2.915 0 0 0-.001 4.123l.001.001 17.5 17.5a2.916 2.916 0 0 0 2.062.854l.121-.003a2.916 2.916 0 0 0 2.105-1.029l6.524-7.71v14.576zm-8.929-13.054l-13.197-13.196 4.626-4.626 6.688 6.688a2.952 2.952 0 0 0 2.223.85 2.917 2.917 0 0 0 2.117-1.091l21.298-26.622 4.548 4.549-28.303 33.448z"/>
    <path fill="#382656" d="M53.959 157.5h-26.25v5.833h26.25V157.5zM106.459 157.5H59.792v5.833h46.667V157.5z"/>
</svg>
