<svg xmlns="http://www.w3.org/2000/svg" width="112" height="112" fill="none" viewBox="0 0 112 112">
    <path fill="#fff" d="M56 24c-17.673 0-32 14.328-32 32s14.327 32 32 32c17.672 0 32-14.328 32-32S73.672 24 56 24zm0 49.982c-3.778 0-7.316-.888-10.363-2.429-.816.654-4.508 3.363-8.173 2.096 2.215-2.098 2.62-4.545 2.566-6.245C37.1 64.301 35.341 60.33 35.341 56c.001-9.931 9.25-17.983 20.658-17.983 11.409 0 20.657 8.051 20.657 17.983S67.41 73.982 56 73.982z" filter="url(#a)"/>
    <defs>
        <filter id="a" width="112" height="112" x="0" y="0" color-interpolation-filters="sRGB" filterUnits="userSpaceOnUse">
            <feFlood flood-opacity="0" result="BackgroundImageFix"/>
            <feColorMatrix in="SourceAlpha" values="0 0 0 0 0 0 0 0 0 0 0 0 0 0 0 0 0 0 127 0"/>
            <feOffset/>
            <feGaussianBlur stdDeviation="12"/>
            <feColorMatrix values="0 0 0 0 0 0 0 0 0 0 0 0 0 0 0 0 0 0 0.25 0"/>
            <feBlend in2="BackgroundImageFix" result="effect1_dropShadow"/>
            <feBlend in="SourceGraphic" in2="effect1_dropShadow" result="shape"/>
        </filter>
    </defs>
</svg>
