<svg xmlns="http://www.w3.org/2000/svg" width="35" height="35" fill="none" viewBox="0 0 35 35">
    <path fill="#8A8A8F" d="M4.375 13.125A4.388 4.388 0 0 0 0 17.5a4.388 4.388 0 0 0 4.375 4.375A4.388 4.388 0 0 0 8.75 17.5a4.388 4.388 0 0 0-4.375-4.375zm26.25 0A4.388 4.388 0 0 0 26.25 17.5a4.388 4.388 0 0 0 4.375 4.375A4.388 4.388 0 0 0 35 17.5a4.388 4.388 0 0 0-4.375-4.375zm-13.125 0a4.388 4.388 0 0 0-4.375 4.375 4.388 4.388 0 0 0 4.375 4.375 4.388 4.388 0 0 0 4.375-4.375 4.388 4.388 0 0 0-4.375-4.375z"/>
</svg>
